PathFileType	4	(X/Y/Z)	Patient4_TMGait_0pt5_01_right_15.trc.trc
DataRate	CameraRate	NumFrames	NumMarkers	Units	OrigDataRate	OrigDataStartFrame	OrigNumFrames
74.468085106383	74.468085106383	6	33	mm	74.468085106383	36	       141
Frame#	Time	L.ASIS			Sacral			L.Shoulder			Chest			R.Shoulder			Neck			R.ASIS			R.Thigh.Superior			R.Thigh.Lateral			R.Thigh.Inferior			R.Patella			L.Thigh.Superior			L.Thigh.Lateral			L.Thigh.Inferior			L.Patella			L.Shank.Superior			L.Shank.Lateral			L.Shank.Inferior			R.Shank.Superior			R.Shank.Lateral			R.Shank.Inferior			R.Heel			R.Midfoot.Superior			R.Midfoot.Lateral			R.Toe			L.Heel			L.Midfoot.Lateral			L.Midfoot.Superior			L.Toe			L.Elbow			L.Wrist			R.Elbow			R.Wrist			
		X1	Y1	Z1	X2	Y2	Z2	X3	Y3	Z3	X4	Y4	Z4	X5	Y5	Z5	X6	Y6	Z6	X7	Y7	Z7	X8	Y8	Z8	X9	Y9	Z9	X10	Y10	Z10	X11	Y11	Z11	X12	Y12	Z12	X13	Y13	Z13	X14	Y14	Z14	X15	Y15	Z15	X16	Y16	Z16	X17	Y17	Z17	X18	Y18	Z18	X19	Y19	Z19	X20	Y20	Z20	X21	Y21	Z21	X22	Y22	Z22	X23	Y23	Z23	X24	Y24	Z24	X25	Y25	Z25	X26	Y26	Z26	X27	Y27	Z27	X28	Y28	Z28	X29	Y29	Z29	X30	Y30	Z30	X31	Y31	Z31	X32	Y32	Z32	X33	Y33	Z33	

36	19.880000000000	840.297717311124	957.321798739264	341.405434315731	622.327457488754	1001.442163288023	490.718327815047	803.626513265405	1435.710184735141	327.930987680719	895.802664837481	1361.763853472811	493.095389516992	800.991973875083	1431.594064263209	664.084571583420	795.163297274691	1492.862044953914	480.433009163099	845.628686335760	937.995572478603	615.581204498573	906.937543488149	750.313180919198	581.778384852986	838.349506140379	633.857620297833	640.680425202360	920.461656386023	589.483734058740	559.797034184380	931.290590531915	500.713612444477	565.832450044318	859.528317671012	731.084945700928	362.380211389382	757.268072132613	626.896736175701	299.025800964140	832.356613906132	534.867116962278	356.242899384354	818.534823262993	452.763123578285	356.392642672414	754.612253910522	395.899926409256	352.295933683710	619.781485905271	340.871798764233	301.821699184510	612.027638811509	215.304691354418	364.924084920511	910.519232253676	410.671523526989	572.817083481398	847.919827111025	301.925875604995	633.910997727770	896.657973046643	210.382709185466	571.339465444719	772.108352242127	43.047726073176	540.747482774965	943.411457218281	97.796197369393	576.541213020732	855.184876788449	36.679710990785	615.884405105113	1063.511080304957	43.815670997041	605.135563462094	425.251670292042	129.177972870314	399.429185716039	492.560448506581	87.686521561645	326.303914728266	592.458070532768	113.722986814222	350.819712652819	686.894727118821	32.899459711452	337.932642112657	817.933133006196	1088.611058144879	190.091530983646	1022.054049916767	925.665861207371	188.024519326671	718.386257525576	1089.112172496381	763.292104630444	812.497604738426	845.742040748930	770.507031633206	
37	19.893428571429	840.450413803469	958.263156308378	343.960816279590	623.040682822507	1002.248091240924	494.401042747188	803.353161319798	1436.420763182202	330.336474244453	896.668242183786	1362.666852798247	494.939784065362	803.064857267933	1432.556069098535	666.522158277660	795.666694890957	1493.685123731773	482.883305123563	847.155921965868	938.811604439234	617.904681069095	906.787350031775	749.542633033108	584.806407586743	836.520868798277	633.974856800713	643.146023510661	918.341420989704	588.937129477188	562.328554324888	928.120844783103	500.107821659740	567.942231413721	865.131602342833	733.493908530902	364.680978401701	767.193907197249	626.717748105304	300.417180821103	845.504466840867	536.252112583386	357.217623534151	832.744197210304	452.674307453111	356.222388713905	766.352593051511	396.167161800090	352.415950873147	629.284658557800	346.659621476610	302.156168648299	617.102287652886	221.155180985871	364.403215113866	906.713229063666	410.255725798340	574.596192362710	843.200180521887	301.772237423392	635.120292425142	891.246862440389	210.128497727119	572.219952246355	765.585186930746	43.087828624694	540.953846693627	936.905899369870	97.859882329035	576.910991613814	848.630130444818	36.689123926652	616.072537163640	1056.972074957537	43.697988739583	605.434831132258	426.894669581906	145.202862691471	398.279327452426	491.824916078104	99.314033779826	325.492929860559	593.126816193634	119.044583472068	350.188433321457	681.367383909241	32.006674683512	338.027797705319	815.255425868026	1087.900987704905	195.580289157833	1008.441380074262	911.615019875250	190.534869063476	726.117592425310	1089.683907426447	769.193189276168	832.754248751977	851.826755051353	778.188718897179	
38	19.906857142857	840.398165721205	958.966429878105	346.360612159342	623.555950972313	1002.873980869979	497.996029112113	802.794453618393	1436.919201520260	332.606819861689	897.365926516759	1363.370023443352	496.600422908707	805.025962163850	1433.256452346827	668.836693273904	796.012204723213	1494.322244622520	485.215181985998	848.461173192116	939.469651364778	620.085502950728	906.403437824452	748.673475371323	587.963441589837	834.500700317911	633.999097389177	645.656809743375	916.136995823919	588.351025410208	565.006775740656	924.871384447000	499.460304595099	570.255476884729	870.712377258428	736.041716797421	366.987627250033	777.322423991192	626.804828525356	301.695972152022	858.665815867234	538.077852700704	358.309235109289	847.093943845776	453.119768190690	356.333332902562	778.506093264578	396.835317326178	352.638483106935	639.511311490927	352.671273148713	302.457970767493	622.991092810919	227.410757869996	363.999249007818	902.819348380553	409.783173687615	576.515892161902	838.340525931630	301.559189044197	636.381512426005	885.790495186461	209.836442003745	573.205507774336	759.007778651695	43.153151060177	541.164938771561	930.394024316885	97.876296330002	577.297991980809	842.024453934994	36.679214756236	616.259075075430	1050.395584287280	43.460752707334	605.731087360248	429.831659228367	161.445755245467	397.219146644098	492.324418461161	111.596975270203	324.646835543225	594.743511772417	125.094927674253	349.603421199733	676.804766406035	31.346651373098	337.793698245847	812.292519748864	1087.059679667165	200.807333612178	993.510400730638	898.132072722710	192.870774378591	733.981856475152	1090.200003002871	775.222254730497	852.942478860913	858.492496855819	785.578870934713	
39	19.920285714286	840.146092433981	959.455536995579	348.595598299310	623.874725163312	1003.352728039504	501.451605071799	802.004287500111	1437.234275457194	334.732268806024	897.900651870157	1363.889003033377	498.085605029951	806.848626427850	1433.725251997633	671.007518854600	796.243187273395	1494.801434007705	487.411810332910	849.522644063737	940.001700900911	622.131119943398	905.805774012607	747.782144910256	591.158019747816	832.352575446624	633.966895651329	648.143594520625	913.888371584634	587.753773584769	567.745596928935	921.594402890500	498.793456871865	572.684739373817	876.128081411756	738.760168254798	369.295798274786	787.419505761272	627.261593368564	302.865791139727	871.560150481739	540.412664437447	359.490739406789	861.329626595457	454.180065103989	356.678680005900	790.856369114915	397.968836331479	352.933709839476	650.239715292228	358.781818031265	302.750507372550	629.668346660518	233.868930976952	363.704492109402	898.881343856993	409.277493166254	578.501272134071	833.400443927364	301.324519464977	637.662148742833	880.312466855303	209.523866253462	574.254831777443	752.380694781480	43.252588595516	541.384047740933	923.879401090319	97.849526299442	577.695604006788	835.375293876982	36.660433164567	616.448256202872	1043.785890702540	43.115614154426	606.020897006568	434.105726803226	177.196377373162	396.361606034150	494.210354402392	124.007525492693	323.812888477497	597.468107977349	131.654091607486	349.018265037450	673.654945577214	31.068757052359	337.093792805889	808.932279368820	1086.118481034647	205.723641724457	977.346375499359	885.482997993068	195.060733851404	742.048113803415	1090.662027607209	781.284994138532	872.946539377801	865.660052354431	792.599936712508	
40	19.933714285714	839.698859455157	959.782999715825	350.666152907098	624.000453606412	1003.739923584428	504.725525192364	801.048368075020	1437.416951557952	336.709683294767	898.283453637247	1364.261075971986	499.411024528145	808.515583168647	1434.022553412899	673.019467621209	796.406121016758	1495.168676121230	489.460310630928	850.327707830986	940.453208083389	624.053645342226	905.008282920719	746.936920539013	594.296924986056	830.103613227881	633.914174691551	650.532452263887	911.600756735656	587.169503199449	570.455241752956	918.303217906888	498.132659104460	575.125960536427	881.246097977395	741.684486240892	371.599913305149	797.261844377473	628.171799418248	303.926269913827	883.950796852781	543.304532974871	360.706666632788	875.232753967929	455.914365593292	357.168235517377	803.220988329578	399.609332741641	353.245944768190	661.266728063738	364.829074976936	303.050261860792	637.149567599160	240.272208814915	363.491693823930	894.912423120499	408.768331874726	580.469644379698	828.413777531183	301.107038658286	638.920368699906	874.820879326341	209.214908957110	575.321375436262	745.713483452643	43.391510841858	541.611468792593	917.363229609680	97.792791457790	578.097008154737	828.693794633182	36.643627496498	616.640628611387	1037.147983905234	42.693779822699	606.303046411732	439.759223761381	191.679427618084	395.804101301734	497.643443578331	135.926912533214	323.031362908629	601.501669225384	138.406355423857	348.377253588987	672.428979277395	31.296788909332	335.808528963402	805.057640059333	1085.140472063539	210.293551923201	960.071757631196	873.909800869865	197.136706525857	750.369555685487	1091.102846195265	787.272806025751	892.674006821869	873.277797322019	799.178169610769	
41	19.947142857143	839.060096513137	960.020882381966	352.579907026109	623.937587061447	1004.102846489873	507.788048848960	799.993895254498	1437.529965929957	338.543135697801	898.530501740540	1364.536048624218	500.596928788519	810.023086432945	1434.224702884525	674.867068745074	796.543743981463	1495.477595038205	491.354451389602	850.873193359172	940.870747088090	625.863483136726	904.016274615533	746.187492022379	597.290827919314	827.751027175803	633.872124057806	652.754140054986	909.246798871358	586.615569308025	573.047493901923	914.973764852905	497.502190826036	577.472194030432	885.954885313615	744.844693829459	373.884986621783	806.649156549202	629.587765909404	304.873680857556	895.653242798412	546.772673598383	361.882673212089	888.624946495143	458.354599711372	357.691494429125	815.457909505800	401.768051853211	353.507275620860	672.424603955031	370.616341052718	303.362176183217	645.490857467780	246.324277819807	363.317055064134	890.897589726284	408.285744820538	582.340679271901	823.388639896380	300.940049029567	640.111576602366	869.309388518040	208.934839734978	576.358754754463	739.017013747130	43.571226258316	541.844688613472	910.844413890304	97.722732765660	578.494796341786	821.991328688621	36.637894793253	616.833581981544	1030.486522488713	42.234632996333	606.576890559481	446.839620955936	204.123368377743	395.603014264494	502.790605597167	146.698248954710	322.323358389332	607.072137523616	144.965464653566	347.623155183525	673.660433784089	32.090807246728	333.858021724980	800.561556891437	1084.210907172699	214.493174758930	941.845194946952	863.613504161355	199.132712676906	758.972010710129	1091.575075555339	793.073454474276	912.055605337854	881.321267760720	805.243257843903	
